<svg clip-rule="evenodd" fill-rule="evenodd" stroke-linejoin="round" stroke-miterlimit="1.414" viewBox="0 0 512 512" xmlns="http://www.w3.org/2000/svg" xmlns:serif="http://www.serif.com/"><g id="BRASIL" transform="matrix(.783 0 0 .783 -1176.34 -1218.51)"><g><g transform="matrix(1.277 0 0 1.277 1501.95 1555.8)"><path d="m11.675 418.34c-3.687-11.793-5.675-24.336-5.675-37.34v-36.111h.299v-177.778h.299v-36.111c0-60.309 42.751-110.7 99.543-122.425l.767-.156c7.935-1.587 16.141-2.419 24.54-2.419h249.701c55.713.001 102.951 36.614 118.999 87.099l.177.561c3.687 11.793 5.675 24.336 5.675 37.34v36.111h-.299v177.778h-.299v36.111c0 68.986-55.938 124.995-124.85 125h-249.701c-8.459 0-16.722-.844-24.71-2.453l-.669-.136c-44.318-9.177-80.076-41.904-93.62-84.51z" fill="#00a850"/></g><path d="m1962.22 1967.16c72.36-46.2 131.57-84.23 131.57-84.5 0-1.05-263.28-168.5-264.93-168.5-1.64 0-265 167.45-265 168.5 0 1.15 263.6 168.87 265.12 168.69.92-.1 60.88-37.99 133.24-84.19zm-132.83-196.98c62.09 0 112.5 50.41 112.5 112.5s-50.41 112.5-112.5 112.5-112.5-50.41-112.5-112.5 50.41-112.5 112.5-112.5z" fill="#ffe42c"/><path d="m1936.86 1916.03c-14.23 45.83-56.99 79.15-107.47 79.15-62.09 0-112.5-50.41-112.5-112.5 0-9.45 1.17-18.63 3.37-27.41.16-.19.33-.33.5-.42 6.24-3.34 55.61-4.83 75.11-2.27 49.11 6.45 93.76 25.46 131.92 56.15zm-107.78 55.42c.15 0 .37.13.5.27.31.38.39.23.18-.32-.15-.4-.11-.51.31-.82l.48-.36-.57-.01c-.47 0-.6-.09-.69-.45-.06-.24-.17-.44-.25-.44s-.19.2-.25.44c-.09.36-.23.45-.69.45l-.58.01.49.36c.41.3.45.42.31.8-.24.64-.22.7.15.37.18-.16.45-.3.61-.3zm56.83-2.57c.46.34.88.61.93.61.06 0-.05-.45-.24-1-.19-.56-.35-1.03-.35-1.04 0-.02.4-.31.89-.64l.9-.61-1.11-.09-1.1-.09-.35-1.06-.35-1.06-.38 1.06-.37 1.06-1.13.05-1.13.06.77.55c.43.3.84.6.91.67.08.06-.02.59-.22 1.16s-.36 1.07-.36 1.11.42-.25.93-.64l.93-.71zm-22.41-11.67-.43-1.37-.43-1.36-.44 1.36-.43 1.35-1.44.05-1.44.06 1.11.8c.61.44 1.11.89 1.12.99 0 .11-.16.66-.36 1.23-.19.57-.35 1.11-.35 1.2s.36-.11.8-.43c.45-.32.96-.69 1.14-.82.28-.19.47-.12 1.42.58.6.45 1.12.81 1.16.81.03 0-.14-.61-.38-1.36-.37-1.12-.4-1.39-.2-1.5.14-.08.68-.47 1.21-.87l.97-.72zm21.79.17c.07 0 .56.33 1.09.73s1 .7 1.05.65c.04-.04-.09-.59-.28-1.22-.2-.62-.36-1.19-.36-1.26 0-.06.49-.47 1.09-.89l1.1-.77-1.42-.05-1.42-.05-.45-1.37-.46-1.38-.42 1.38-.43 1.37-1.4.05-1.4.05 1.09.79c.6.44 1.09.84 1.09.91 0 .06-.2.69-.44 1.4l-.44 1.29 1.14-.81c.62-.45 1.19-.82 1.27-.82zm-13.03-7.48c.07 0 .52.29 1 .64s.87.61.87.57c0-.05-.16-.55-.36-1.12-.19-.57-.33-1.05-.31-1.06.03-.02.44-.31.92-.64l.86-.61-1.15-.05-1.16-.06-.32-1.1-.32-1.11-.36 1.11-.36 1.1-1.17.06-1.17.05.62.4c1.34.86 1.29.76.89 1.92-.19.56-.35 1.06-.35 1.11 0 .04.39-.22.87-.57s.93-.64 1-.64zm24.99-1.15c.45.34.86.59.9.54.04-.04-.05-.46-.21-.92-.15-.47-.28-.91-.28-.99s.42-.45.93-.81l.93-.67-1.24-.09-1.25-.09-.26-.94c-.15-.51-.31-.93-.36-.93s-.21.42-.36.93l-.26.94-1.25.09-1.24.09.93.67c.51.36.93.73.93.82 0 .08-.12.49-.27.91-.39 1.13-.34 1.16.63.46l.9-.64zm-42.63-1.07c.48.33.89.59.92.55.03-.03-.06-.39-.21-.81-.39-1.12-.34-1.29.54-1.88.43-.29.79-.59.79-.66s-.49-.15-1.09-.18l-1.1-.05-.29-.83c-.15-.46-.32-.88-.38-.94-.06-.05-.24.35-.41.88l-.31.98-1.19.01c-1.33 0-1.34-.06.14 1.07l.59.45-.29.87c-.17.48-.3.94-.3 1.03s.39-.12.86-.47l.87-.64zm31.02-1.07c.47.33.89.59.92.56.03-.04-.07-.4-.22-.82-.39-1.12-.34-1.29.54-1.88.44-.29.8-.59.8-.66s-.5-.15-1.1-.18l-1.1-.05-.28-.83c-.16-.46-.33-.88-.39-.93-.05-.06-.24.34-.41.87l-.31.98-1.19.01c-1.33 0-1.34-.06.14 1.07l.59.46-.29.86c-.17.48-.3.94-.3 1.03s.39-.12.87-.47l.86-.64zm-102.88-1.39 1.21-.88.48.35c1.4 1.03 2.35 1.68 2.35 1.61 0-.04-.24-.78-.54-1.65-.29-.87-.53-1.59-.53-1.61 0-.01.61-.46 1.36-.99l1.36-.96-1.71-.05-1.72-.05-.52-1.64c-.57-1.81-.53-1.82-1.17.29l-.39 1.27-1.75.09-1.74.09 1.36.94c.74.52 1.35 1.01 1.35 1.08 0 .08-.23.84-.52 1.69s-.43 1.49-.31 1.42c.11-.07.76-.52 1.43-1zm123.52-5.29-.43-1.36-.43-1.36-.44 1.36-.44 1.36h-1.39c-.77 0-1.39.06-1.39.14 0 .07.48.45 1.07.84.58.39 1.06.8 1.06.91 0 .1-.15.66-.35 1.23s-.36 1.1-.36 1.19.51-.2 1.13-.65l1.14-.8 1.05.79c.58.44 1.1.8 1.15.8.06 0-.09-.58-.32-1.29l-.42-1.29.59-.5c.32-.28.8-.63 1.07-.79.27-.17.49-.36.49-.44s-.62-.14-1.39-.14zm-78.67-3.74c.66-.49 1.3-.89 1.43-.89.12 0 .76.4 1.42.89.67.49 1.25.89 1.31.89.05 0-.14-.69-.43-1.54-.28-.86-.52-1.57-.52-1.6s.62-.51 1.38-1.08l1.38-1.03-1.78-.09-1.78-.09-.43-1.47c-.24-.81-.49-1.47-.55-1.47-.07 0-.32.66-.55 1.47l-.44 1.47-1.78.09-1.78.09 1.38 1.03c.76.57 1.39 1.05 1.39 1.08s-.24.74-.53 1.6c-.29.85-.48 1.54-.42 1.54s.64-.4 1.3-.89zm85.57-5.16-.44-1.38c-.47-1.49-.46-1.49-.98.25l-.31 1.04-2.97.1 1.11.78c.61.43 1.15.82 1.18.86.04.04-.13.66-.37 1.38s-.45 1.33-.45 1.36c0 .04.5-.3 1.11-.74s1.18-.8 1.26-.8c.09 0 .63.36 1.21.81.58.44 1.06.74 1.06.65s-.16-.63-.36-1.2c-.19-.57-.35-1.13-.35-1.25 0-.13.49-.59 1.1-1.04l1.1-.82zm-147.34 3.59c.05-.08.41-.37.79-.64l.71-.48.9.65c.5.36.91.62.91.57 0-.04-.15-.53-.34-1.08l-.35-1 .92-.67.93-.68-1.17-.05-1.17-.05-.23-.88c-.12-.49-.28-.92-.36-.97-.07-.04-.27.36-.44.89l-.3.97-1.2.01-1.19.01.53.39c.3.22.72.56.95.75l.41.36-.36 1.02c-.19.57-.28 1.03-.19 1.03.08 0 .2-.07.25-.15zm140.52-9.47c.67-.49 1.28-.89 1.36-.89s.7.41 1.37.91c.68.5 1.27.89 1.3.85.04-.04-.15-.76-.42-1.61l-.5-1.53 1.34-.96 1.34-.95-1.68-.09-1.67-.09-.55-1.6-.56-1.59-.53 1.59-.53 1.6-1.64.09-1.64.09 1.25.93c.69.52 1.26 1.04 1.26 1.17s-.21.83-.45 1.55c-.25.72-.44 1.33-.44 1.36 0 .15.25 0 1.39-.83zm17.77.09c.48.33.89.59.92.56s-.06-.4-.21-.82c-.39-1.12-.34-1.29.54-1.88.43-.29.79-.59.79-.66s-.49-.15-1.09-.17l-1.1-.06-.29-.83c-.15-.46-.32-.88-.38-.94-.06-.05-.24.35-.41.88l-.31.98-1.19.01c-1.33 0-1.34-.06.14 1.07l.59.46-.29.86c-.17.48-.3.94-.3 1.03s.39-.12.86-.47l.87-.64zm-152.6-5.43-.42-1.36-.43-1.37-.44 1.36-.44 1.35-1.44.06-1.44.05 1.11.8c.61.44 1.11.89 1.12.99 0 .11-.16.66-.35 1.23-.2.57-.36 1.11-.36 1.2s.36-.1.81-.43c.44-.32.95-.69 1.13-.81.28-.2.47-.13 1.42.57.6.45 1.12.81 1.16.81.03 0-.14-.61-.38-1.36-.36-1.12-.4-1.39-.2-1.5.14-.08.68-.47 1.22-.87l.96-.72zm-37.55-2.44.43 1.36 2.93.1-1.12.79c-.61.44-1.11.88-1.11 1 0 .11.16.67.36 1.24.19.56.35 1.1.35 1.19s-.52-.21-1.15-.67l-1.16-.82-1.06.82c-.58.44-1.1.81-1.15.81s.1-.57.34-1.27c.5-1.46.52-1.41-.93-2.41l-.99-.68 1.48-.09 1.48-.09.43-1.32.44-1.31zm88.64 2.89c.38-.46.87-.5 1.43-.1.57.41.64.31.34-.48-.17-.46-.14-.54.49-1.07l.68-.58h-.83c-.82 0-.84-.02-1.09-.76l-.26-.76-.23.76c-.22.74-.25.76-1 .76-.92 0-.98.16-.22.6.56.33.61.63.24 1.58-.15.38.15.41.45.05zm114.24-4.23c.1-.34.2-.67.3-1.01-.1.34-.2.67-.3 1.01zm.37-1.23-.04.12.13-.43zm.2-.67-.06.2.12-.42zm-96.28-4.3.39-1.34c.21-.74.45-1.28.52-1.2s.29.66.49 1.3l.35 1.16 1.4.08 1.4.09-1.11.79c-.61.43-1.11.79-1.11.81s.19.62.44 1.34l.4 1.35c-.02.02-.44-.27-.93-.65s-1.03-.74-1.2-.8c-.19-.06-.68.18-1.31.64-.55.41-1.03.71-1.07.67-.04-.05.08-.55.28-1.12.19-.57.35-1.14.35-1.27 0-.14-.49-.6-1.08-1.05l-1.09-.8zm96.47 3.64-.08.27.12-.43zm-189.25-5.06-.53-1.62-.53-1.63-.52 1.62-.51 1.62-1.76.05-1.77.05 1.35.96c.74.53 1.35 1.05 1.34 1.16 0 .11-.2.83-.44 1.62-.24.78-.44 1.45-.44 1.48s.48-.29 1.07-.71c.6-.43 1.22-.87 1.39-.98.25-.19.51-.07 1.62.75.74.53 1.36.94 1.39.91s-.18-.75-.47-1.59l-.52-1.54 1.45-1.07 1.44-1.08zm69.37 3.92c.06 0 .5.29.98.64s.87.6.87.56-.16-.53-.35-1.09l-.34-1.01.89-.66.89-.67-1.14-.05-1.14-.05-.33-1.1-.34-1.09-.35 1.09-.35 1.1-1.15.05-1.14.05.86.61c.48.34.89.62.92.64.05.03-.37 1.4-.6 1.96-.11.27.07.2.78-.32.52-.36.98-.66 1.04-.66zm120.37-.66c-.14.51-.28 1.02-.42 1.53.14-.51.28-1.02.42-1.53zm.06-.21-.04.16.12-.48zm.17-.68-.06.24.12-.46zm.61-2.47c-.17.71-.34 1.43-.52 2.14.18-.71.35-1.43.52-2.14zm.06-.23-.05.19.12-.5zm.15-.69-.06.29.11-.51zm.53-2.48c-.15.74-.31 1.48-.47 2.21.16-.73.32-1.47.47-2.21zm-180.73-.45.63.48-.12-.45c-.07-.24-.17-.61-.22-.82-.08-.3.04-.47.58-.8l.68-.43-.88-.08c-.84-.09-.88-.12-1.09-.81-.21-.72-.23-.71-.61.32-.15.42-.27.49-.94.49l-.76.01.6.51c.61.52.64.72.26 1.71-.09.25.03.21.56-.15l.68-.46zm180.78.19-.05.23.11-.53zm.45-2.39c.04-.26.09-.52.13-.78-.04.26-.09.52-.13.78-.12.68-.25 1.36-.38 2.04.13-.68.26-1.36.38-2.04zm-109.99 1.07c.63.45 1.16.79 1.16.76 0-.04-.2-.65-.44-1.35l-.44-1.29 1.17-.84 1.17-.84-1.44-.05-1.44-.05-.39-1.24c-.22-.68-.45-1.24-.51-1.24s-.29.56-.51 1.24l-.4 1.24-1.44.05-1.43.05 1.17.84 1.17.84-.44 1.29c-.24.7-.44 1.31-.44 1.35 0 .03.52-.31 1.16-.76l1.16-.83zm110.17-2.13-.05.27.1-.56zm-213.76-64.29c17.54-39.31 56.98-66.73 102.78-66.73 62.09 0 112.5 50.41 112.5 112.5 0 5.45-.39 10.81-1.14 16.05v.01l-.07.47-.03.18-.01.06-.01.09-.03.23-.05.3-.02.1v.06c-.04.21-.07.43-.11.65l.11-.65.02-.16.08-.53.02-.15.1-.65v-.01l.1-.72-10.71-8.06c-37.8-28.45-80.09-45.88-128.7-53.06-13.79-2.04-57.95-2.48-69.16-.68-2.48.39-4.63.65-5.67.7l-.21.46zm60.55 49.42-.4-1.34c-.23-.73-.45-1.33-.5-1.33s-.27.6-.49 1.33l-.41 1.34h-2.92l2.36 1.64-.41 1.31c-.22.73-.36 1.32-.31 1.32.06 0 .53-.32 1.05-.71.51-.39 1.03-.71 1.13-.71.11 0 .62.32 1.14.71s.99.71 1.04.71c.06 0-.08-.59-.31-1.32l-.4-1.31 1.18-.82 1.17-.82zm73.96-7.58c-.2-.57-.3-1.09-.23-1.16.08-.07.49-.37.91-.67l.78-.55-1.13-.05-1.13-.05-.38-1.06-.37-1.06-.35 1.06-.36 1.06-1.1.08-1.1.09.89.61c.5.33.9.62.9.64s-.16.49-.35 1.04-.31 1.01-.27 1.01c.05 0 .47-.28.93-.61l.86-.62.88.68c.49.38.91.67.93.65.03-.03-.11-.51-.31-1.09zm-124.77-17.53.52-1.65.51-1.65.51 1.64.51 1.64 3.56.11-1.33.97c-.73.53-1.37.99-1.41 1.02-.05.04.14.75.42 1.59.27.83.46 1.55.42 1.59s-.66-.36-1.38-.89l-1.29-.97-1.32.97c-.72.53-1.35.97-1.39.97s.16-.72.43-1.61l.5-1.6-1.31-.93c-.73-.52-1.32-1-1.32-1.07-.01-.07.75-.13 1.68-.13zm-16.04-6.15-.05.2v-.02zm.18-.7-.07.26.01-.05zm.17-.66-.07.29.02-.09zm.17-.64-.08.29.04-.12zm.18-.63-.08.29.04-.16zm.17-.63-.07.28.05-.19zm143.76-5.2-.55-1.64-.54-1.65-.5 1.64-.5 1.64-1.77.05-1.78.05 1.36.95c.74.52 1.35 1.04 1.35 1.17 0 .12-.2.81-.44 1.53-.25.72-.45 1.38-.45 1.47s.5-.21 1.11-.66c.62-.45 1.25-.89 1.4-.98.21-.12.61.07 1.6.79.73.53 1.34.94 1.37.92.02-.03-.19-.75-.48-1.6l-.53-1.56 1.45-1.06 1.45-1.06zm-143.57 4.57-.08.26.06-.21zm.18-.63-.05.18.05-.16zm.26-.85-.07.24.01-.04zm.2-.65-.08.27.02-.08zm.2-.64-.09.28.04-.11zm.2-.63-.09.29.05-.14zm.21-.62-.09.29.05-.18zm.21-.62-.09.28.06-.2zm.21-.61-.09.25.08-.22zm.29-.84-.08.25v-.03zm.24-.65-.11.29.03-.07zm.23-.63-.12.31.04-.1zm.22-.61-.11.31.05-.14zm.23-.61-.12.32.07-.18zm.24-.6-.13.32.09-.22zm.23-.61-.13.34.11-.27zm.23-.58-.14.37.14-.36.2-.5zm.4-.96-.17.4.03-.07zm.24-.58-.16.39.04-.11zm.25-.59-.17.39.07-.15zm.25-.58-.17.39.08-.2zm.26-.59-.19.41.12-.26z" fill="#003687"/><path d="m1726.61 1836.91c1.03-.05 3.19-.31 5.67-.7 11.21-1.8 55.37-1.36 69.16.68 48.61 7.18 90.9 24.61 128.7 53.06l10.71 8.06c-.84 6.18-2.19 12.2-3.99 18.02l-9.07-7.3c-38.16-30.69-82.81-49.7-131.92-56.15-19.5-2.56-68.87-1.07-75.11 2.27-.17.09-.34.23-.5.42 1.59-6.35 3.72-12.49 6.35-18.36zm201.84 68.68c-2.63-.84-3.89-4.04-2.61-6.68 1.57-3.26 5.47-4.4 7.85-2.3 1.13.99 1.59 2.02 1.57 3.56-.02 2.21-1.15 4.01-3.12 4.96-1.34.65-2.59.81-3.69.46zm2.6-2.06c1.24-.46 2.22-1.96 2.22-3.39 0-1.2-.48-1.99-1.43-2.37-.96-.39-1.34-.36-2.43.14-2.07.97-2.79 3.64-1.37 5.12.77.81 1.76.97 3.01.5zm-13.2-5.88c-1.18-.46-2.88-1.84-3.52-2.88-.6-.97-.8-2.21-.48-2.99.12-.29.27-.53.33-.53.07 0 .53.28 1.04.63.78.54.9.7.79 1.01-.23.63 0 1.23.75 1.96 1.48 1.43 3.15 1.62 3.15.36 0-.61-.27-1.04-1.63-2.59-.67-.76-1.38-1.7-1.58-2.08-1.35-2.67 1.41-4.94 4.21-3.46 2.04 1.08 3.38 2.46 3.72 3.83.14.58-.2 1.93-.52 2.05-.13.05-.6-.17-1.05-.48-.73-.52-.8-.62-.71-1.15.13-.78-.35-1.57-1.36-2.23-.98-.65-1.68-.68-2.07-.09-.4.61-.24.95 1.2 2.54 2.27 2.5 2.76 3.9 1.85 5.24-.82 1.21-2.37 1.54-4.12.86zm-11.07-7.67c-1.32-.41-3.11-1.7-3.87-2.79-.62-.88-.84-2.56-.42-3.13.24-.31.29-.3 1.18.26.8.49.93.64.84.99-.17.66.33 1.57 1.18 2.16 1.39.95 2.64 1.05 2.9.23.17-.52-.14-.99-1.82-2.77-1.52-1.59-2.17-2.64-2.18-3.49 0-.25.23-.82.52-1.27.7-1.11 1.75-1.54 2.99-1.22 1.92.48 4.04 1.96 4.67 3.27.42.86.46 1.41.17 2.23-.24.69-.39.7-1.4.03-.72-.48-.79-.59-.74-1.15.07-.86-.45-1.53-1.66-2.17-.93-.48-1.02-.5-1.48-.24-.3.17-.51.45-.54.74-.05.39.26.81 1.71 2.34 2.04 2.15 2.5 3.01 2.19 4.15-.23.85-1.15 1.79-1.99 2.03-.8.23-.95.22-2.25-.2zm-13.41-7.82c-2.21-1.27-4.08-2.33-4.16-2.36-.1-.04 4.78-8.95 5.12-9.34.03-.04 7.76 4.33 7.89 4.46.08.08-.8 1.72-.92 1.72-.04 0-4.02-2.24-5.56-3.13l-.75-.44-.46.78c-.25.42-.45.86-.45.96s1.16.85 2.59 1.65l2.59 1.47-.44.73c-.25.41-.55.71-.67.68-.13-.03-1.28-.65-2.57-1.38-1.29-.72-2.42-1.32-2.51-1.32-.25 0-1.36 2.15-1.19 2.32.08.08 1.51.92 3.18 1.87 1.67.94 3.1 1.78 3.18 1.86.11.11-.7 1.83-.84 1.78-.01-.01-1.83-1.05-4.03-2.31zm-9.15-5.01c-.51-.27-.65-.43-.56-.66.51-1.23.8-2.26.8-2.87v-.72l-1.96-.98-1.96-.98-.84 1.69c-.46.93-.92 1.69-1.03 1.69-.09-.01-.51-.19-.92-.41l-.75-.39 2.39-4.61c1.32-2.54 2.44-4.66 2.49-4.72.06-.06 1.42.56 3.02 1.36 3.14 1.59 3.85 2.17 4.2 3.44.23.88.1 1.61-.48 2.62-.42.73-1.48 1.47-2.1 1.47-.21 0-.28.21-.28.93-.01.96-.81 3.35-1.16 3.45-.09.03-.48-.11-.86-.31zm-11.65-5.58-.57-.25.27-.65.27-.64-.68.14c-1.55.33-2.93-.01-4-.98-1.04-.93-1.44-1.84-1.53-3.47-.08-1.32-.05-1.45.56-2.71.41-.82.93-1.55 1.39-1.94 2.4-2.06 6.03-1.31 7.24 1.5.49 1.12.67 2.49.33 2.49-.51 0-1.9-.73-1.9-1 0-.55-.61-1.54-1.14-1.87-1.93-1.17-4.54.71-4.56 3.28 0 1.7.98 2.8 2.5 2.8.73 0 1.95-.45 1.95-.72 0-.07-.32-.26-.71-.42s-.71-.32-.71-.35c0-.04.12-.36.27-.72l.27-.65.66.29c.37.15 1.07.43 1.57.62 1.64.62 1.62.49.46 3.09-.57 1.27-1.1 2.33-1.19 2.36-.1.02-.43-.07-.75-.2zm13.74-.65c.24-.11.54-.45.66-.74.37-.89-.03-1.33-2.29-2.5l-1.99-1.03-.63 1.25-.63 1.25 1.92.98c2.04 1.04 2.28 1.1 2.96.79zm-29.46-5.84c-1.47-.47-2.65-1.64-3.13-3.1-.4-1.19-.28-3.14.26-4.19.59-1.15 1.54-2.11 2.62-2.63.86-.42 1.12-.47 2.3-.39 1.09.07 1.46.17 2.07.6 1.57 1.08 2.21 2.51 2.07 4.61-.13 2.04-1.28 3.79-3.07 4.69-.82.41-2.46.62-3.12.41zm1.69-2c1.07-.3 1.69-.82 2.16-1.83 1.53-3.28-1.55-6.1-4.07-3.73-1.79 1.68-1.53 4.61.49 5.51.66.29.56.29 1.42.05zm-11.99-1.63c-.49-.16-.57-.25-.47-.56.18-.59.29-3.38.13-3.6-.07-.11-1.04-.48-2.14-.83l-2.01-.62-.57 1.86c-.55 1.8-.58 1.87-1.02 1.78-.86-.18-1.47-.48-1.39-.7.05-.12.79-2.37 1.66-4.99 1.05-3.15 1.67-4.76 1.83-4.76.13 0 1.56.41 3.16.92 3.14.99 4.01 1.49 4.46 2.58.32.76.31 2.26-.01 2.89-.31.59-1.35 1.54-1.87 1.71-.29.09-.33.18-.19.45.26.49.22 1.64-.11 2.95-.31 1.23-.37 1.27-1.46.92zm-19.54-5.61c-1.24-.31-1.26.16.26-5.38.76-2.75 1.43-5.05 1.48-5.1s1.53.27 3.28.73c2.16.57 3.36.97 3.76 1.27 1.91 1.45 1.64 4.5-.5 5.59-.95.48-1.79.45-4.3-.19-1.18-.3-2.17-.52-2.19-.49-.03.05-.19.65-.8 2.95-.2.75-.29.8-.99.62zm20.87-.98c.54-.59.62-.99.34-1.54-.28-.54-.45-.62-2.77-1.37-.83-.26-1.61-.51-1.72-.55-.18-.07-.95 1.84-.95 2.38 0 .24 3.51 1.45 4.29 1.47.26.01.61-.16.81-.39zm-38.41-2.64c-2.11-.37-3.84-.68-3.85-.69-.03-.01 1.57-9.35 1.61-9.4.02-.02 1.74.25 3.82.61l3.8.66-.09.77c-.05.43-.14.83-.2.89s-1.36-.11-2.9-.38c-1.53-.26-2.84-.42-2.91-.34s-.17.44-.23.81c-.12.77-.22.72 2.19 1.11 2.93.49 2.69.37 2.56 1.22-.06.41-.16.8-.22.87s-1.18-.06-2.48-.29c-1.69-.29-2.4-.36-2.44-.21-.14.43-.45 2.12-.4 2.17.03.03 1.37.28 2.98.57l2.94.51-.05.79c-.03.43-.11.84-.18.9s-1.85-.2-3.95-.57zm25-1.24c.79-.63.59-1.9-.37-2.28-.53-.21-4.03-1.1-4.08-1.04-.02.02-.19.61-.39 1.32l-.36 1.29.65.17c4.01 1.06 3.9 1.04 4.55.54zm-102.57-.87c-1.12-.46-2.13-1.44-2.74-2.69-.65-1.32-.68-3.38-.07-4.72 1.77-3.86 6.62-3.83 8.53.06.67 1.36.71 3.4.09 4.75-1.09 2.39-3.58 3.5-5.81 2.6zm59.89-.32c-.6-.09-.6-.16-.24-4.14.14-1.52.24-2.78.21-2.81s-.65 1.48-1.37 3.35l-1.32 3.41-.77-.09c-.42-.05-.8-.12-.85-.17-.04-.04-.37-1.55-.73-3.36-.35-1.8-.7-3.34-.77-3.41-.06-.08-.21 1.12-.33 2.67-.12 1.54-.27 3.08-.32 3.41-.11.59-.12.6-.9.51-.43-.05-.82-.13-.86-.17-.05-.05.11-2.36.36-5.14s.45-5.12.45-5.21c0-.23 2.49-.06 2.64.19.07.11.44 1.77.81 3.69.38 1.92.72 3.47.75 3.44s.65-1.58 1.38-3.44l1.33-3.38 1.29.04c.7.02 1.31.06 1.34.1.03.03-.13 2.26-.37 4.95s-.44 5.07-.44 5.29c0 .41-.15.45-1.29.27zm-40.04-.94v-.68c0-.92-.48-2.7-.87-3.24-.33-.45-.32-.46.17-1.05 1.4-1.68.82-4.22-1.18-5.19-.8-.39-.84-.39-4.14-.17-1.83.12-3.38.27-3.44.33-.09.09.43 10.31.53 10.49.06.11 1.79.03 1.85-.09.04-.07.01-.93-.06-1.91-.08-.98-.09-1.84-.02-1.91.07-.06 1.07-.14 2.24-.17l2.12-.06.34.66c.2.37.44 1.19.55 1.83l.2 1.16zm23.25-.19c-1.77-.07-3.64-.13-4.17-.14l-.95-.03.11-3.51c.06-1.94.16-4.35.22-5.35l.11-1.84 3.23.1c1.77.06 3.81.15 4.52.2l1.29.1v1.93l-3.62-.11-3.63-.12-.11.96c-.06.52-.06 1.01.02 1.07.07.07 1.43.16 3.02.2s2.93.11 2.97.15.03.46-.03.93l-.09.85-2.99-.12-2.99-.12-.06 1.34-.06 1.34 1.05.11c.58.06 1.9.11 2.94.11 1.04.01 2.31.06 2.82.12l.94.11v.95.96l-.67-.03c-.37-.02-2.11-.09-3.87-.16zm-18.68-.91c-.06-.52-.12-2.92-.12-5.34v-4.39l2.47-.12c3.87-.2 5.28.29 6.51 2.27.46.75.53 1.05.6 2.6.11 2.26-.19 3.25-1.33 4.38-1.09 1.08-1.88 1.29-5.24 1.43l-2.78.11zm-21.74.4c1.93-.87 2.22-3.79.53-5.47-.97-.98-1.75-1.14-2.87-.6-2.23 1.08-2.13 5.03.15 6.07.93.42 1.27.42 2.19 0zm27.86-2.02c1.95-.98 2.16-4.19.38-5.69-.73-.62-1.38-.74-3.17-.59l-1.49.13v2.87c.01 1.59.06 3.06.11 3.28.11.38.2.4 1.75.4 1.34 0 1.77-.07 2.42-.4zm-15-2.97c1.12-.1 1.58-.23 1.84-.49.49-.49.49-1.4 0-1.89-.43-.42-1.16-.46-3.92-.21-1.22.11-1.3.14-1.2.5.06.22.1.81.11 1.32v.94l.84-.01c.47-.01 1.52-.08 2.33-.16z" fill="#fff"/><g id="path852" transform="matrix(.451 0 0 .451 658.281 986.081)"><path d="m2814.8 2037.7c-5.84-1.86-8.62-8.96-5.8-14.81 3.48-7.22 12.12-9.75 17.41-5.09 2.51 2.21 3.51 4.48 3.48 7.9-.05 4.89-2.56 8.87-6.92 10.99-2.97 1.44-5.74 1.78-8.17 1.01zm5.76-4.56c2.75-1.03 4.91-4.34 4.91-7.52 0-2.65-1.06-4.41-3.17-5.25-2.12-.85-2.97-.8-5.37.32-4.59 2.14-6.18 8.07-3.05 11.34 1.72 1.79 3.91 2.16 6.68 1.11zm-29.25-13.03c-2.63-1.01-6.39-4.08-7.81-6.39-1.33-2.14-1.77-4.89-1.06-6.61.27-.66.61-1.19.74-1.19.14 0 1.17.63 2.3 1.41 1.72 1.18 2 1.55 1.74 2.24-.51 1.38 0 2.71 1.67 4.32 3.27 3.18 6.98 3.6 6.98.8 0-1.35-.6-2.29-3.61-5.72-1.49-1.69-3.06-3.77-3.5-4.63-3.01-5.9 3.12-10.94 9.32-7.66 4.54 2.39 7.5 5.45 8.25 8.49.31 1.28-.45 4.27-1.16 4.54-.29.11-1.33-.36-2.31-1.06-1.64-1.14-1.78-1.37-1.58-2.55.27-1.72-.79-3.47-3.01-4.95-2.18-1.44-3.74-1.5-4.6-.19-.89 1.36-.53 2.11 2.65 5.62 5.04 5.54 6.13 8.65 4.11 11.63-1.82 2.68-5.24 3.39-9.12 1.9zm-24.55-16.99c-2.92-.92-6.87-3.78-8.55-6.18-1.38-1.97-1.88-5.69-.94-6.94.51-.69.64-.67 2.62.56 1.75 1.09 2.04 1.44 1.85 2.2-.37 1.46.74 3.49 2.61 4.78 3.07 2.11 5.86 2.34 6.44.52.37-1.16-.31-2.19-4.05-6.13-3.36-3.54-4.8-5.86-4.81-7.75-.01-.55.5-1.82 1.13-2.81 1.56-2.45 3.89-3.4 6.64-2.71 4.25 1.07 8.94 4.36 10.34 7.25.93 1.92 1.03 3.13.39 4.95-.53 1.53-.88 1.54-3.11.06-1.6-1.06-1.75-1.3-1.65-2.55.17-1.9-.98-3.39-3.67-4.8-2.06-1.07-2.25-1.1-3.27-.54-.68.38-1.13 1-1.21 1.65-.1.86.59 1.79 3.8 5.17 4.52 4.77 5.53 6.68 4.85 9.21-.51 1.88-2.55 3.97-4.41 4.5-1.78.51-2.1.48-5-.44zm-29.71-17.34c-4.89-2.81-9.03-5.15-9.21-5.22-.23-.09 10.58-19.85 11.34-20.71.07-.09 17.19 9.6 17.49 9.9.17.16-1.79 3.8-2.04 3.8-.1 0-8.91-4.96-12.33-6.95l-1.66-.96-1.01 1.72c-.55.94-1 1.91-1 2.14s2.58 1.87 5.73 3.66l5.74 3.25-.98 1.63c-.54.89-1.21 1.57-1.48 1.5-.28-.07-2.84-1.45-5.7-3.06-2.85-1.61-5.35-2.93-5.54-2.93-.57 0-3.03 4.77-2.66 5.14.19.19 3.37 2.05 7.06 4.14s6.86 3.94 7.04 4.13c.26.24-1.54 4.06-1.85 3.93-.03-.01-4.06-2.31-8.94-5.11zm-20.27-11.09c-1.14-.6-1.44-.96-1.23-1.46 1.12-2.73 1.76-5.03 1.76-6.38v-1.59l-4.34-2.17-4.35-2.18-1.86 3.75c-1.03 2.07-2.05 3.75-2.27 3.74s-1.15-.41-2.06-.89l-1.65-.87 5.3-10.22c2.91-5.63 5.39-10.33 5.52-10.46.13-.12 3.13 1.23 6.68 3.02 6.97 3.51 8.54 4.8 9.3 7.62.53 1.95.24 3.56-1.05 5.8-.93 1.62-3.27 3.25-4.67 3.25-.46 0-.61.48-.62 2.08-.02 2.12-1.79 7.42-2.55 7.64-.22.06-1.07-.24-1.91-.68zm-25.81-12.39-1.27-.55.59-1.42.6-1.43-1.5.32c-3.44.72-6.5-.03-8.87-2.17-2.3-2.07-3.18-4.08-3.4-7.7-.17-2.92-.11-3.22 1.26-6 .9-1.81 2.06-3.44 3.06-4.3 5.34-4.57 13.38-2.91 16.07 3.31 1.07 2.5 1.47 5.53.73 5.53-1.14 0-4.22-1.63-4.22-2.23 0-1.22-1.35-3.41-2.54-4.13-4.27-2.61-10.06 1.56-10.09 7.26-.01 3.76 2.16 6.2 5.54 6.2 1.62 0 4.32-.98 4.32-1.58 0-.17-.71-.59-1.57-.94-.87-.34-1.58-.7-1.58-.78s.27-.8.6-1.59l.59-1.43 1.48.63c.81.34 2.37.97 3.47 1.38 3.64 1.38 3.59 1.08 1.01 6.86-1.25 2.81-2.44 5.15-2.64 5.21s-.94-.14-1.64-.45zm30.44-1.44c.54-.24 1.2-.98 1.47-1.63.82-1.97-.07-2.94-5.08-5.54l-4.41-2.29-1.4 2.78-1.4 2.78 4.25 2.15c4.54 2.31 5.05 2.45 6.57 1.75zm-65.29-12.93c-3.25-1.04-5.87-3.63-6.94-6.86-.88-2.64-.61-6.97.58-9.29 1.31-2.54 3.42-4.67 5.81-5.84 1.9-.93 2.49-1.03 5.09-.86 2.42.15 3.24.39 4.6 1.33 3.46 2.4 4.89 5.58 4.59 10.23-.3 4.5-2.86 8.39-6.82 10.38-1.81.9-5.45 1.38-6.91.91zm3.75-4.43c2.36-.66 3.74-1.82 4.78-4.06 3.38-7.27-3.43-13.51-9.02-8.26-3.96 3.72-3.39 10.22 1.08 12.2 1.46.65 1.26.64 3.16.12zm-26.58-3.61c-1.08-.35-1.26-.57-1.05-1.25.42-1.3.66-7.48.31-7.97-.17-.25-2.31-1.07-4.76-1.83l-4.44-1.39-1.26 4.13c-1.21 3.99-1.29 4.13-2.27 3.94-1.91-.39-3.26-1.07-3.08-1.55.1-.27 1.76-5.24 3.69-11.05 2.32-6.98 3.69-10.56 4.05-10.56.3 0 3.45.92 7.01 2.04 6.95 2.2 8.87 3.31 9.88 5.71.71 1.7.69 5.02-.03 6.42-.68 1.31-2.99 3.41-4.14 3.78-.66.21-.74.41-.42 1 .58 1.08.48 3.63-.25 6.53-.69 2.74-.81 2.82-3.24 2.05zm-43.29-12.43c-2.75-.69-2.8.35.58-11.92 1.68-6.1 3.15-11.19 3.27-11.31s3.39.61 7.26 1.62c4.81 1.26 7.46 2.15 8.33 2.82 4.25 3.21 3.65 9.96-1.09 12.38-2.11 1.07-3.97.99-9.54-.42-2.62-.66-4.8-1.15-4.84-1.08-.07.1-.44 1.44-1.78 6.53-.44 1.65-.64 1.78-2.19 1.38zm46.26-2.17c1.18-1.32 1.37-2.19.73-3.43-.61-1.18-1-1.37-6.13-3.01-1.85-.6-3.56-1.15-3.81-1.24-.41-.16-2.12 4.09-2.12 5.27 0 .55 7.8 3.23 9.51 3.27.58.01 1.36-.36 1.82-.86zm-85.15-5.86c-4.66-.82-8.5-1.51-8.53-1.52-.06-.03 3.49-20.73 3.57-20.84.04-.05 3.86.56 8.48 1.36l8.41 1.45-.19 1.72c-.11.95-.31 1.83-.44 1.96-.14.14-3.03-.23-6.42-.83-3.4-.59-6.3-.93-6.46-.75-.16.17-.39.97-.51 1.78-.26 1.71-.48 1.59 4.86 2.47 6.49 1.08 5.95.82 5.67 2.71-.14.9-.36 1.77-.49 1.92-.14.15-2.62-.14-5.51-.65-3.73-.65-5.3-.79-5.4-.47-.3.96-.99 4.71-.89 4.82.06.06 3.04.63 6.62 1.26l6.51 1.14-.12 1.74c-.06.96-.24 1.86-.39 1.99s-4.1-.43-8.77-1.26zm55.41-2.76c1.77-1.38 1.31-4.19-.82-5.03-1.16-.46-8.92-2.45-9.03-2.32-.04.04-.43 1.36-.87 2.93l-.8 2.86 1.45.38c8.88 2.34 8.64 2.31 10.07 1.18zm-227.3-1.92c-2.48-1.01-4.71-3.19-6.06-5.94-1.45-2.94-1.51-7.5-.16-10.46 3.92-8.57 14.67-8.51 18.9.11 1.49 3.02 1.57 7.54.2 10.54-2.42 5.28-7.93 7.74-12.88 5.75zm132.71-.7c-1.31-.2-1.32-.37-.51-9.18.31-3.36.51-6.16.45-6.23-.06-.06-1.43 3.28-3.03 7.43l-2.93 7.54-1.69-.18c-.94-.1-1.78-.27-1.88-.37s-.83-3.45-1.62-7.45-1.56-7.4-1.71-7.57c-.14-.17-.48 2.49-.75 5.92-.26 3.42-.58 6.83-.71 7.56-.23 1.31-.25 1.32-1.97 1.13-.96-.11-1.83-.28-1.93-.38s.26-5.22.81-11.38.99-11.36.99-11.55c0-.52 5.52-.13 5.86.41.15.25.96 3.93 1.8 8.19.84 4.25 1.58 7.68 1.65 7.61.07-.06 1.44-3.49 3.06-7.61l2.94-7.49 2.86.08c1.57.05 2.91.14 2.98.22.08.07-.3 5-.83 10.97-.53 5.96-.97 11.24-.97 11.72 0 .93-.33.99-2.87.61zm-88.72-2.09h-3.79l-.44-2.57c-.24-1.42-.79-3.24-1.21-4.05l-.77-1.47-4.69.13c-2.58.07-4.82.25-4.97.4-.15.14-.13 2.04.04 4.21s.24 4.08.15 4.24c-.14.27-3.98.45-4.11.2-.22-.4-1.37-23.05-1.18-23.24.14-.14 3.57-.47 7.63-.74 7.31-.48 7.39-.48 9.18.39 4.44 2.14 5.71 7.77 2.61 11.48-1.09 1.32-1.1 1.34-.38 2.33.87 1.21 1.93 5.14 1.93 7.2zm51.52-.41c-3.91-.15-8.06-.3-9.23-.33l-2.12-.05.25-7.79c.14-4.29.36-9.63.49-11.86l.24-4.06 7.16.22c3.93.13 8.44.33 10.02.45l2.86.22v4.27l-8.03-.26-8.03-.25-.25 2.12c-.14 1.16-.13 2.24.03 2.38.16.15 3.18.34 6.7.44 3.53.09 6.49.25 6.58.34s.07 1.01-.05 2.05l-.21 1.89-6.63-.27-6.62-.27-.14 2.98-.13 2.97 2.33.25c1.28.13 4.21.24 6.51.24s5.12.12 6.26.25l2.07.25v2.12 2.11l-1.48-.07c-.81-.03-4.67-.19-8.58-.34zm-41.39-2.03c-.14-1.15-.26-6.47-.26-11.82v-9.73l5.46-.28c8.59-.44 11.71.65 14.43 5.05 1.02 1.65 1.17 2.33 1.34 5.75.24 5.01-.43 7.21-2.95 9.7-2.43 2.39-4.18 2.87-11.61 3.17l-6.16.26zm-48.19.9c4.29-1.94 4.92-8.41 1.2-12.13-2.17-2.17-3.89-2.53-6.37-1.33-4.94 2.4-4.72 11.16.34 13.45 2.05.93 2.8.94 4.83.01zm61.76-4.48c4.31-2.17 4.78-9.3.84-12.61-1.63-1.37-3.06-1.64-7.02-1.31l-3.31.28.01 6.38c0 3.5.11 6.78.24 7.26.22.84.44.89 3.86.89 2.97 0 3.94-.16 5.38-.89zm-33.24-6.58c2.46-.23 3.48-.51 4.07-1.09 1.08-1.08 1.07-3.12-.01-4.2-.94-.93-2.56-1.02-8.67-.46-2.72.25-2.88.32-2.67 1.12.13.47.23 1.78.23 2.92l.01 2.08 1.88-.03c1.03-.01 3.35-.16 5.16-.34z" fill="#00a850" fill-rule="nonzero"/></g></g><g fill="#fff" transform="matrix(.674 0 0 .673 1691.57 1642.72)"><path d="m204.125 488.398c.225 0 .56.182.744.403.462.557.59.334.279-.485-.225-.591-.163-.757.455-1.219l.716-.534-.855-.008c-.687-.007-.887-.138-1.02-.67-.092-.364-.26-.661-.374-.661s-.282.297-.373.661c-.133.532-.333.663-1.021.67l-.855.008.716.534c.611.456.679.632.463 1.2-.358.943-.318 1.036.231.539.266-.241.669-.438.894-.438z"/><path d="m288.498 484.58c.68.499 1.303.908 1.385.908.081 0-.083-.674-.366-1.497-.284-.823-.515-1.519-.515-1.546s.596-.455 1.325-.951l1.325-.901-1.635-.132-1.636-.133-.522-1.572-.523-1.572-.556 1.572-.557 1.572-1.675.08-1.675.079 1.146.814c.63.448 1.237.896 1.348.996.11.099-.039.876-.331 1.727-.293.851-.532 1.593-.532 1.649 0 .057.62-.37 1.379-.948l1.379-1.052z"/><path d="m253.516 471.789c.42-.294.697-.181 2.11.86.895.658 1.669 1.197 1.72 1.197.052 0-.201-.91-.562-2.022-.539-1.662-.591-2.059-.292-2.23.199-.114 1.009-.692 1.8-1.285l1.436-1.077h-2.25-2.25l-.634-2.024-.635-2.023-.653 2.013-.653 2.014-2.133.076-2.132.076 1.647 1.19c.905.655 1.649 1.321 1.653 1.48s-.231.982-.522 1.828-.529 1.646-.529 1.777c0 .132.539-.154 1.198-.636s1.415-1.029 1.681-1.214z"/><path d="m287.57 467.496c.106 0 .838.487 1.626 1.082.789.596 1.486 1.03 1.55.966.065-.065-.121-.879-.413-1.81s-.532-1.775-.534-1.875.729-.695 1.626-1.323l1.629-1.141-2.108-.076-2.108-.076-.674-2.041-.673-2.04-.634 2.039-.634 2.039-2.08.078-2.081.077 1.618 1.17c.89.644 1.617 1.248 1.617 1.343s-.293 1.034-.651 2.087l-.651 1.914 1.691-1.206c.93-.664 1.778-1.207 1.884-1.207z"/><path d="m268.232 456.384c.106 0 .775.426 1.486.948.71.522 1.292.898 1.292.835 0-.062-.239-.806-.53-1.653s-.5-1.559-.463-1.583.647-.451 1.356-.949l1.289-.906-1.72-.077-1.721-.078-.47-1.642-.47-1.642-.535 1.642-.535 1.643-1.739.077-1.738.077.926.596c1.982 1.274 1.914 1.126 1.322 2.848-.291.844-.528 1.585-.528 1.647 0 .063.581-.313 1.292-.835.711-.521 1.379-.948 1.486-.948z"/><path d="m305.323 454.661c.673.514 1.278.88 1.345.814.066-.067-.072-.684-.306-1.373-.235-.689-.427-1.35-.427-1.47s.623-.664 1.384-1.21l1.384-.992-1.846-.132-1.847-.132-.394-1.389c-.217-.764-.457-1.389-.533-1.389-.077 0-.317.625-.534 1.389l-.394 1.389-1.846.132-1.846.132 1.384.992c.761.546 1.384 1.096 1.384 1.224 0 .127-.179.738-.397 1.356-.59 1.672-.518 1.724.934.681l1.332-.957z"/><path d="m242.052 453.073c.706.502 1.319.875 1.365.83.045-.046-.098-.592-.318-1.216-.583-1.654-.51-1.91.796-2.786.652-.436 1.185-.877 1.185-.979s-.734-.222-1.631-.265l-1.632-.079-.419-1.238c-.23-.681-.486-1.304-.569-1.386-.084-.081-.358.506-.609 1.305l-.458 1.452-1.772.009c-1.975.01-1.987-.087.206 1.594l.884.677-.439 1.288c-.242.709-.439 1.397-.439 1.529s.578-.185 1.284-.703l1.284-.943z"/><path d="m288.09 451.486c.705.501 1.319.874 1.364.829s-.097-.592-.317-1.215c-.584-1.654-.511-1.91.796-2.786.651-.437 1.184-.878 1.185-.98 0-.102-.734-.221-1.632-.264l-1.631-.079-.419-1.238c-.23-.681-.487-1.305-.57-1.386s-.357.506-.609 1.304l-.457 1.452-1.773.009c-1.974.01-1.987-.087.207 1.594l.883.677-.439 1.289c-.241.708-.439 1.396-.439 1.528s.578-.184 1.285-.703l1.284-.943z"/><path d="m135.364 449.418 1.806-1.307.708.52c2.084 1.532 3.486 2.498 3.486 2.403 0-.059-.357-1.164-.794-2.456-.436-1.291-.793-2.366-.793-2.389s.909-.685 2.021-1.472l2.021-1.43-2.545-.076-2.546-.076-.769-2.438c-.848-2.686-.792-2.699-1.748.437l-.576 1.888-2.587.132-2.587.133 2.012 1.403c1.106.771 2.012 1.493 2.012 1.604 0 .11-.351 1.238-.779 2.506-.429 1.269-.637 2.22-.463 2.115.174-.104 1.128-.778 2.121-1.497z"/><path d="m319.058 446.989c.859.648 1.63 1.182 1.713 1.185.084.004-.131-.856-.476-1.911l-.629-1.918.873-.745c.481-.409 1.201-.941 1.602-1.181.4-.24.727-.53.727-.645 0-.114-.931-.207-2.07-.207h-2.07l-.634-2.023-.635-2.024-.656 2.024-.657 2.023h-2.063c-1.134 0-2.06.089-2.056.198.003.11.715.675 1.581 1.257s1.577 1.189 1.581 1.348c.003.159-.232.981-.523 1.827s-.529 1.645-.529 1.775.756-.303 1.68-.963l1.681-1.199z"/><path d="m201.954 436.011c.981-.728 1.934-1.323 2.116-1.323.183 0 1.136.595 2.117 1.323.981.727 1.852 1.323 1.934 1.323s-.201-1.035-.628-2.299-.777-2.331-.777-2.371.923-.761 2.051-1.604l2.05-1.532-2.641-.132-2.642-.132-.644-2.183c-.354-1.201-.723-2.183-.82-2.183-.096 0-.465.982-.82 2.183l-.644 2.183-2.641.132-2.642.132 2.051 1.532c1.128.843 2.051 1.564 2.051 1.604s-.35 1.107-.777 2.371c-.428 1.264-.71 2.299-.628 2.299s.952-.596 1.934-1.323z"/><path d="m327.704 432.571c.127 0 .937.543 1.799 1.206.862.664 1.567 1.099 1.567.968 0-.132-.238-.931-.529-1.777s-.529-1.686-.529-1.868c0-.181.737-.876 1.637-1.546l1.637-1.216h-2.155-2.155l-.651-2.051c-.701-2.209-.691-2.212-1.46.384l-.455 1.534-2.203.078-2.204.077 1.649 1.162c.907.638 1.697 1.208 1.755 1.267.058.058-.191.98-.555 2.048-.363 1.069-.661 1.983-.661 2.032s.738-.448 1.641-1.104c.902-.657 1.744-1.194 1.872-1.194z"/><path d="m110.248 433.673c.075-.121.607-.546 1.181-.944l1.044-.723 1.349.969c.741.533 1.348.917 1.348.853s-.23-.785-.511-1.603l-.512-1.487 1.367-1.002 1.368-1.001-1.735-.078-1.734-.077-.336-1.311c-.185-.721-.425-1.366-.532-1.432-.108-.067-.401.528-.651 1.322l-.455 1.443-1.772.008-1.773.008.789.587c.434.323 1.064.825 1.4 1.116l.611.529-.526 1.522c-.289.837-.42 1.521-.291 1.521s.296-.099.371-.22z"/><path d="m318.849 419.607c.998-.728 1.908-1.323 2.024-1.323s1.034.61 2.04 1.356 1.874 1.311 1.929 1.256-.231-1.128-.635-2.385l-.734-2.284 1.986-1.419 1.987-1.419-2.487-.132-2.488-.133-.819-2.37-.82-2.37-.789 2.37-.789 2.37-2.438.133-2.438.132 1.864 1.393c1.025.766 1.864 1.549 1.864 1.739 0 .191-.298 1.222-.662 2.292-.364 1.069-.661 1.983-.661 2.03 0 .219.374-.003 2.066-1.236z"/><path d="m345.24 419.736c.705.501 1.319.874 1.364.829s-.098-.592-.317-1.215c-.584-1.654-.511-1.91.796-2.786.651-.437 1.184-.878 1.185-.98 0-.102-.734-.221-1.632-.264l-1.631-.079-.419-1.238c-.23-.681-.487-1.305-.57-1.386s-.357.506-.609 1.304l-.457 1.452-1.773.009c-1.974.01-1.987-.087.207 1.594l.883.677-.439 1.289c-.241.708-.439 1.396-.439 1.528s.578-.184 1.285-.703l1.284-.943z"/><path d="m116.991 416.226c.421-.293.697-.18 2.11.86.895.659 1.669 1.198 1.72 1.198.052 0-.201-.91-.562-2.022-.539-1.663-.591-2.059-.292-2.23.199-.114 1.009-.693 1.8-1.285l1.436-1.078h-2.25-2.25l-.634-2.023-.635-2.023-.653 2.013-.653 2.013-2.133.076-2.132.076 1.647 1.191c.905.655 1.649 1.321 1.653 1.48s-.231.981-.522 1.827-.529 1.646-.529 1.778.539-.155 1.198-.637 1.415-1.028 1.681-1.214z"/><path d="m60.692 415.486 1.572-1.21 1.715 1.223c.943.673 1.714 1.117 1.714.987s-.238-.928-.529-1.774-.529-1.675-.529-1.842.744-.833 1.654-1.48l1.653-1.176-2.175-.077-2.175-.077-.634-2.012-.635-2.012-.651 1.957-.651 1.956-2.197.133-2.197.132 1.477 1.015c2.148 1.477 2.122 1.409 1.386 3.574-.355 1.041-.583 1.893-.508 1.893s.845-.544 1.71-1.21z"/><path d="m194.537 412.341c.57-.687 1.292-.736 2.125-.143.852.607.956.462.51-.71-.261-.686-.203-.813.728-1.601l1.011-.856-1.235-.004c-1.215-.004-1.24-.022-1.616-1.128l-.382-1.125-.344 1.125c-.335 1.097-.371 1.124-1.492 1.124-1.359 0-1.446.239-.328.9.835.493.903.937.36 2.341-.217.562.218.612.663.077z"/><path d="m226.162 401.349c-.363-1.069-.66-1.965-.66-1.991s.744-.571 1.653-1.211l1.654-1.162-2.083-.133-2.083-.132-.521-1.72c-.286-.946-.609-1.813-.718-1.927-.108-.115-.457.689-.776 1.786l-.579 1.993h-2.139-2.14l1.617 1.19c.889.655 1.617 1.351 1.617 1.547 0 .195-.239 1.049-.53 1.896-.292.847-.479 1.59-.418 1.652.062.062.781-.381 1.598-.984.929-.687 1.654-1.041 1.938-.948.25.082 1.05.611 1.777 1.176.728.565 1.353 1.001 1.389.969z"/><path d="m82.308 400.106c.38-.268.759-.093 2.42 1.118 1.083.789 2.006 1.399 2.049 1.355.044-.044-.267-1.106-.691-2.362l-.772-2.282 2.144-1.6 2.145-1.599h-2.639-2.638l-.79-2.414-.789-2.413-.769 2.404-.768 2.405-2.614.075-2.613.075 1.999 1.428c1.099.786 1.997 1.56 1.995 1.72-.002.161-.3 1.244-.662 2.408-.361 1.164-.657 2.154-.657 2.2s.72-.431 1.599-1.058c.88-.628 1.803-1.285 2.051-1.46z"/><path d="m187.301 400.557c.089 0 .743.426 1.454.948s1.292.898 1.292.835c0-.062-.232-.789-.516-1.614l-.516-1.501 1.325-.988 1.326-.988-1.697-.077-1.697-.077-.492-1.626-.492-1.625-.52 1.626-.52 1.625-1.704.077-1.705.077 1.289.906c.709.498 1.319.925 1.356.949.074.047-.544 2.086-.881 2.904-.167.405.099.299 1.159-.463.757-.544 1.449-.988 1.539-.988z"/><path d="m100.043 388.864.935.712-.182-.661c-.1-.364-.25-.914-.332-1.223-.119-.442.065-.695.862-1.191l1.012-.629-1.3-.132c-1.252-.127-1.313-.172-1.616-1.191-.321-1.079-.347-1.065-.906.463-.232.636-.408.729-1.397.739l-1.131.01.893.764c.907.776.951 1.068.388 2.536-.14.364.034.317.831-.224l1.007-.684z"/><path d="m205.79 387.185c.946.675 1.72 1.183 1.72 1.128 0-.054-.292-.958-.649-2.008l-.649-1.909 1.734-1.246 1.735-1.247-2.132-.076-2.132-.077-.593-1.842c-.326-1.012-.665-1.841-.754-1.841-.088 0-.427.829-.753 1.841l-.593 1.842-2.132.077-2.132.076 1.734 1.247 1.735 1.246-.649 1.909c-.357 1.05-.649 1.953-.649 2.008s.774-.453 1.72-1.128l1.719-1.227z"/><path d="m138.881 367.219c.771-.582 1.531-1.058 1.689-1.058s.918.476 1.689 1.058 1.468 1.058 1.548 1.058-.126-.88-.458-1.957l-.604-1.957 1.749-1.218 1.749-1.218h-2.168-2.169l-.602-1.982c-.331-1.09-.661-1.981-.734-1.981-.072 0-.403.891-.734 1.981l-.602 1.982h-2.168-2.169l3.499 2.436-.604 1.957c-.332 1.077-.538 1.957-.458 1.957s.776-.476 1.547-1.058z"/><path d="m251.693 350.676c-.293-.852-.442-1.63-.331-1.729.11-.1.717-.548 1.347-.996l1.146-.814-1.675-.079-1.675-.08-.557-1.572-.556-1.572-.523 1.572-.522 1.572-1.635.133-1.635.132 1.325.901c.728.496 1.325.924 1.325.951s-.232.723-.515 1.546c-.284.823-.462 1.497-.398 1.497.065 0 .687-.41 1.384-.91l1.266-.909 1.314 1.012c.723.557 1.344.986 1.381.953s-.173-.756-.466-1.608z"/><path d="m66.062 331.115 1.952-1.443 1.927 1.442c1.061.794 1.978 1.393 2.038 1.332.061-.061-.221-1.128-.626-2.372s-.683-2.302-.618-2.351c.064-.049 1.006-.737 2.093-1.529l1.975-1.441-2.645-.074-2.645-.075-.751-2.439-.751-2.439-.77 2.448-.77 2.447h-2.505c-1.379 0-2.503.089-2.5.198.004.11.885.822 1.959 1.584l1.953 1.385-.742 2.385c-.408 1.312-.693 2.386-.633 2.386.059 0 .986-.65 2.059-1.444z"/><path d="m255.423 308.225c.317-.185.904.106 2.377 1.179 1.075.783 1.987 1.393 2.025 1.355.038-.039-.281-1.108-.71-2.376l-.78-2.307 2.151-1.575 2.151-1.576h-2.637-2.637l-.809-2.447-.809-2.448-.74 2.439-.74 2.439-2.635.075-2.634.075 2.011 1.403c1.106.771 2.011 1.554 2.011 1.739s-.297 1.212-.661 2.282c-.364 1.069-.662 2.05-.662 2.178 0 .129.744-.311 1.654-.977.909-.667 1.843-1.322 2.074-1.458z"/></g></g></svg>